<?xml version="1.0" standalone="no"?>
<!DOCTYPE svg PUBLIC "-//W3C//DTD SVG 20010904//EN"
 "http://www.w3.org/TR/2001/REC-SVG-20010904/DTD/svg10.dtd">
<svg version="1.0" xmlns="http://www.w3.org/2000/svg"
 width="700.000000pt" height="700.000000pt" viewBox="0 0 700.000000 700.000000"
 preserveAspectRatio="xMidYMid meet">
<metadata>
Created by potrace 1.14, written by Peter Selinger 2001-2017
</metadata>
<g transform="translate(0.000000,700.000000) scale(0.100000,-0.100000)"
fill="#000000" stroke="none">
<path d="M3319 5596 c-2 -2 -42 -6 -88 -10 -46 -4 -94 -8 -105 -11 -12 -2 -39
-7 -61 -10 -170 -22 -426 -93 -629 -174 -212 -85 -529 -275 -711 -426 -509
-422 -852 -998 -974 -1635 -36 -190 -46 -302 -46 -525 0 -163 8 -317 19 -370
2 -11 7 -42 10 -70 22 -164 103 -457 173 -625 48 -115 144 -302 211 -410 70
-112 189 -279 200 -281 24 -3 4350 -4 4359 -1 33 10 227 305 317 482 113 222
220 527 250 714 3 17 10 54 15 81 5 28 12 77 16 110 4 33 9 71 11 85 3 14 7
117 9 230 3 184 -3 324 -19 425 -3 19 -9 52 -12 73 -55 366 -203 745 -419
1077 -348 533 -843 919 -1445 1126 -134 46 -337 97 -460 114 -25 4 -58 9 -74
11 -16 3 -50 7 -75 10 -51 6 -467 15 -472 10z m334 -384 c76 -37 129 -92 165
-170 23 -48 27 -71 27 -142 0 -76 -4 -93 -33 -152 -38 -77 -92 -130 -171 -166
-81 -38 -202 -38 -282 -1 -79 37 -133 90 -171 167 -79 159 -27 345 125 445 99
66 230 73 340 19z m-1763 -694 c81 -38 134 -89 172 -166 29 -59 33 -76 33
-152 0 -127 -43 -208 -162 -300 -6 -5 -40 -19 -75 -31 -166 -56 -350 25 -426
190 -38 80 -38 202 -1 281 45 95 105 151 209 191 67 26 179 21 250 -13z m3331
-365 c-21 -43 -62 -130 -92 -193 -67 -144 -533 -1077 -592 -1185 -111 -207
-146 -271 -232 -420 -82 -143 -149 -251 -172 -280 -4 -6 -21 -28 -37 -50 -73
-101 -211 -201 -333 -243 -244 -84 -491 -48 -693 101 -373 275 -409 826 -74
1138 86 79 367 255 641 399 32 17 83 45 113 61 188 103 721 372 1105 559 110
53 243 117 295 143 52 25 98 46 102 46 3 1 -10 -34 -31 -76z m-3665 -1393
c150 -73 220 -231 179 -399 -9 -39 -23 -75 -31 -82 -8 -6 -14 -17 -14 -24 0
-22 -89 -96 -148 -123 -47 -22 -72 -26 -142 -27 -72 0 -94 4 -142 27 -79 37
-140 96 -174 171 -25 53 -29 74 -29 147 1 104 30 176 99 245 110 108 264 133
402 65z m4200 0 c72 -35 125 -90 163 -170 22 -46 26 -69 26 -140 0 -76 -4 -93
-33 -152 -38 -77 -92 -130 -171 -166 -46 -21 -71 -26 -136 -26 -90 0 -105 4
-165 34 -67 34 -125 94 -156 163 -38 82 -41 204 -6 281 44 98 123 169 227 203
66 22 176 10 251 -27z"/>
<path d="M3393 2781 c-99 -34 -171 -100 -215 -198 -17 -37 -22 -68 -23 -133 0
-77 3 -92 33 -152 38 -77 92 -130 171 -166 80 -38 202 -38 282 0 79 36 133 89
171 166 29 59 33 76 33 152 0 74 -4 93 -29 145 -61 123 -168 195 -300 201 -49
2 -87 -3 -123 -15z"/>
</g>
</svg>
